<svg xmlns="http://www.w3.org/2000/svg" version="1.1" viewBox="75 0 350 500">
  <g stroke="#fff" stroke-width="0.5" fill="#16AAB3">
    <path data-info="AMAZONAS"
      d="M175.692 190.117l.958-1.909-1.033-2.3.433-3.825 1.4.359 2.175-1.784 1.833 1.742 4.359.55-1.459-2.475 2.709-2.225 1.666-3.108-.358-2.034 3.083 1.35 1.05-2.116-2.425-4.175-3.316-.875-1.317-2.009-1.05.567-1.183-1.6-1.484 1.675-3.633-2.225-.233-3.242-2.309-1.075-.266-3.608.991-2.15-.85-4.492 1.95-.725.075-3.85-1.25-1.475 1.175-1.316-3.391-2.192-.067-1.35 1.758-2.142-.95-5.075 3.292-3.583.442-2.975 1.866-1.167 1.192-14.275-2.958-4.416.933-3.884-4.283-6.05-.859-11.35-3.325 1.317-6.408 8.475.592 3.483-1.767.75-.842-2.858-1.95-.192-2.791 7.942.241 2.733-4.091 5.392.683 2.158-2.992 6.942.392 4.525-1.833 3.3 1.825.917-.184 2.108 1.184.992-1.209 5.066.7 1.034-2.175 2.775-.225 2.033.667 2.358 4.45 3.534.083 1.483-4.525 6.783-.758 3.317 3.292 6.6 1.9-.133 4.966 7.508 5.309 4.708.766 3.109 1.325.908 1.575 7.908 6.459-.166h0z"/>
    <path data-info="ANCASH"
      d="M187.542 232.158l-2.225-1.3-6.625-11.583-6.734.692-.95 3.241-4.9 3.042-2.708 6.625.625 1.158-1.417 1.567-7.3 2.542-1.266 1.058-.709 4.125-1.433.617.542 2.925 1.708 1.025-.292 1.483 2.292.858-.6 2.025 2.25 1.675-.067 1.884 1.284.916.408 4.7 3.725 4.692-.442 2.1 2.117 7.35 7.45 12.475 3.083-1.083-.666-2.375 1.158-4.325 1.625-.034 2.55 1.6-2.317 1.367 1.059 2.583.1 1.842 1.716-.333-.008 3.891 4.342.034 2.808-4.359 3.217-.416.441-2.35 2.759-3.392 1.75-1.45 2.691-.267-.241-4.141 2.866-.942-.141-3.308-2.35-5.134-1.85-1.583-.434 1.008-1.666-2.725 2.966-3.25.075-3.433 2.492-3.675 2.283 2.692.634-4.109-1.475-1.958-8.625-4.458-5.575-11.809h0z"/>
    <path data-info="APURIMAC"
      d="M317.65 396.775l-.842-2.95 6.809-3.992.266-1.458 4.242-3.925.692-7.308-2.134-3.95-20.375-10.55-5.616 1.566-2.917-.791-.592 1.541-6.633-1.208-6.583-4.367-.809-2.633-1.091.783-1.342 5.3 1.475 6.542 3.292 2.525-2.109.758 6.325 13.559-1.525 5.133 1.584 5.117-1.634 1 .15 2.375 2.159 1.8 2.541-3.4 2.967.416 7.258-2.533 3.867 1.975.5 1.317 1.533-2.942 5.709.975 2.833-.675h0z"/>
    <path data-info="AREQUIPA"
      d="M247.8 417.758l16.392 7.609 1.866 2.766 3.167.3 5.925 3.059.575 1.708 8.958 5.442 10.342 3.166.258 1.1 10.425 3.775 3.884 2.917 8.716 2.017 4.075 3.308.192 1.292 11.558 7.608 9.85 3.392 5.067-5.134-1-1.933-1.217-.025-1.5-4.183.409-3.342 3.658-.383 1.167-6.967 4.491-.225 2.309 1 1.058-.933-.892-4.059 3.55-1.833-.566-3.95 1.675-1.092-.2-2.025-3.117-5.2.492-3.783-2.425-2.142.383-2.933-1.208-1.333-.884 1.183-2.75-.667.617-1.625-1.358-3.175 1.566-3.358-1.7-1.308-2.916 1.3-3.1-3.275-2.042-.592.567 2.225-2.275.058-.459 1.725-5.783-1.558 1.533-3.425-2.85-1.392-3.65-6.85-1.441 1.65-.142 4.85-2.625-2.608-7.025 1.325-1.733-1.408-.017-3.042-2.833.675-5.709-.975-1.533 2.942-2.575.15-1.608 1.333-.775 2.283 1.208 1.5-.475 2.9-4.575 6.517-2.958-.317-.259 2.617-2.625.167-1.358-1.142-6.483 2.183-3.325-3.033-1.392.042-.225 2.691-5.375 5.467.842-4.667-1.542-1.716-2.658 2.675-2.859-.359-.258-3.208-2.675-1.35.283-3.417-8.583-1.225-1.175-1.008-4.767 2.892-3.583 6.366h0z"/>
    <path data-info="AYACUCHO"
      d="M267.325 329.983l-1.15.509.108 2.041-4.491.5-.784 1.217 2.084 3.142 2.183-.117 2.55 6.333-.575.834 1.6 1.225-1.033 4.575 1.541 2.608-1.075.917-2.041-.817-.917 3.5-4.042.675-3.45 4.8-1.725-.592-3.6 1.45-.116 1.909 3.508 3.758.033 12.975-6.95-.475-.8 1.542-.858 2.3 1.367 1.683-2.634 3.675.992.5 1.108 5.083 2.709-.433 1.708-1.65 1.333 4.375 2.409 1.692.258 1.95 1.408-.15.8 5.55-2.633 1.433 1.175 1.008 8.583 1.225-.283 3.417 2.675 1.35.258 3.208 2.859.359 2.658-2.675 1.542 1.716-.842 4.667 5.375-5.467.225-2.691 1.392-.042 3.325 3.033 6.483-2.183 1.358 1.142 2.625-.167.259-2.617 2.958.317 4.575-6.517.475-2.9-1.208-1.5.775-2.283 1.608-1.333 2.575-.15-.5-1.317-3.867-1.975-7.258 2.533-2.967-.416-2.541 3.4-2.159-1.8-.15-2.375 1.634-1-1.584-5.117 1.525-5.133-6.325-13.559 2.109-.758-3.292-2.525-1.475-6.542 1.342-5.3 1.091-.783.809 2.633 6.583 4.367 6.633 1.208.592-1.541-3.667-3.242-4.65-8.258-.058-2.45-5.408-6.95-2.042-.742-2.292-5.575-2.125-1.85-.391-2.517-3.167 1.134-.617 1.308-5.383-2.792-.65-1.5h0z"/>
    <path data-info="CAJAMARCA"
      d="M133.708 191.758l1.484 4.484-.409 2.216-1.733 1.65 7.567 3.659 1.966 5.05 4.042-5.992 4.808-.667 1.017 3.642 3.575.167 2.033-1.867 1.492.408-.608 3.484 4.25 3.466 2.908-2.825.942 1.134 2.216-.459 3.442-2.516.7-1.909 2.767-1.283-1.942-1.992-4.992-11.325-1.575-7.908-1.325-.908-.766-3.109-5.309-4.708-4.966-7.508-1.9.133-3.292-6.6.758-3.317 4.525-6.783-.083-1.483-4.45-3.534-.667-2.358.225-2.033 2.175-2.775-.7-1.034 1.209-5.066-1.184-.992.184-2.108-1.825-.917-3.584.867-1.966 3.625.466 2.691-2.108.15-1.025 3.142-1.65-1.15-3.667-.158-4.525 6.05 2.85 8.816-3.383.484-.067 5.708 1.792 3.867-2.267 2.058 4.142.867 1.083 1.408-1.308 2.467.55 2.141-4.575 2.25-.833 2.317.6 2.225 3.616 5.267 4.159.691.558 2.025-5.108 3.342-.309 3.333h0z"/>
    <path data-info="CUSCO"
      d="M317.65 396.775l.017 3.042 1.733 1.408 7.025-1.325 2.625 2.608.142-4.85 1.441-1.65 3.65 6.85 2.85 1.392-1.533 3.425 5.783 1.558.459-1.725 2.275-.058-.567-2.225 2.042.592 3.1 3.275 2.916-1.3 1.7 1.308-1.566 3.358 1.358 3.175-.617 1.625 2.75.667.884-1.183 2.325-3.092-1.392-8.542.767-5.575-2.084-.266-1.625-2.35 3.017-2.542.417-4.442 4.75-7.583.35-1.4-1.767-1.233.817-4.492 1.691-1.192 1.259.4.166-4.483 4.659-2.358 3.8-5.442-.542-3.042.858-1.775-4.333-1.066-1.017-1.334-4.583.134-2.275-1.1-5.308 5.416-2.184-.95-1.366-6.716-4.884-2.667-1.616.275-3.675-4.967-3.842.792-1.392 1.542-6.216-3.025-.084-2.767-2.408-1.85.258-1.908 2.3-1.117.075-2.1-3.55-2.217.292-4.1-4.683-.833.258-1.292-2.1-1.025.142-3.016-1.584-.784.55-1.116-1.558-2.042 3.042-3.042 2.05-6.725-1.842-1.025-6.1 3.442-2.017-.183-3.441-2.167-1.509.983-4.225-1.441-1.016-3.534-.992 1.75-8.183 1.267-2.375 1.95-1.609 2.35.809 1.625-4.259 3.442.825 4.733 3.659 2.892 2.133 5.15-2.258.658-.634 1.6-2.816 1.525-.434 2.692-1.25.033-1.9-2.967-2.525-1.275-4.791.6.391 2.517 2.125 1.85 2.292 5.575 2.042.742 5.408 6.95.058 2.45 4.65 8.258 3.667 3.242 2.917.791 5.616-1.566 20.375 10.55 2.134 3.95-.692 7.308-4.242 3.925-.266 1.458-6.809 3.992.842 2.95h0z"/>
    <path data-info="HUANCAVELICA"
      d="M248.183 382.492l.8-1.542 6.95.475-.033-12.975-3.508-3.758.116-1.909 3.6-1.45 1.725.592 3.45-4.8 4.042-.675.917-3.5 2.041.817 1.075-.917-1.541-2.608 1.033-4.575-1.6-1.225.575-.834-2.55-6.333-2.183.117-2.084-3.142.784-1.217 4.491-.5-.108-2.041 1.15-.509-2.942-3.766-4.525-1.3-2.491 2-3.234.3-5.633-1.592-.658 6.008-3.859 4.284v1.841l-1.691.117-3.742 4.333-4.35.334.083 1.975 1.859 1.666-2.834 2.409-.041 2.633-.375 2.475-2.425 1.417.333 4.791-2.25 1.459-.425 1.575 3.133 1.033 5.009-1.983.991 1.775-2.141 12.283 3 .65 2.7 2.742 2.708-.3-.7 1.033 2.492.792 1.525-1.067 1.341 2.592h0z"/>
    <path data-info="HUANUCO"
      d="M187.542 232.158l5.575 11.809 8.625 4.458 1.475 1.958-.634 4.109-2.283-2.692-2.492 3.675-.075 3.433-2.966 3.25 1.666 2.725.434-1.008 1.85 1.583 2.35 5.134.141 3.308-2.866.942.241 4.141 1.342 2.767 3.525 2.908 2.092-1.891 4.191-.975 4.167-2.484.708 3.2 2.317-.825 6.642 2.809 3.641-5.942 3.659-1.383.775-4.284 1.783-.65.492-1.891 3.075.575 2.858-2.767 2.183-.017-.408-2.325 3.842 1.517 4.316-.042 1.509-2.075 3.725-.841 2.058-6.975 1.358-1.125 2.359-3.359-2.384-5.616 1.859-7.35 2.058-1.184-.4-5.141-1.9-.959-6.142 3.017-.108 2.567-2.417 2.716.175 1.942-1.2.583-1.791-1.283-2.625 1.825-.209 1.783-2.325 1.825.75 3.309-1.958 2.15-4.55-.359-1.133 2.167-1.825.617-2.909-.1-3.316-5.592-2.192-4.475-1.875-8.2-.917-2.15.909-6.317-1.042-2.108-2.75.392-1.158 3.5.391 5.108-3.066 3.725-2.775-9.85-2.242.375-1.325 3.392-2.05-1.609-7.758.184-2.275 1.441-3.584-.441-2.258-3.059-1.892 1.225-1.608-.483-1.433 1.683h0z"/>
    <path data-info="ICA"
      d="M256.15 408.5l2.633-1.433-.8-5.55-1.408.15-.258-1.95-2.409-1.692-1.333-4.375-1.708 1.65-2.709.433-1.108-5.083-.992-.5 2.634-3.675-1.367-1.683.858-2.3-1.341-2.592-1.525 1.067-2.492-.792.7-1.033-2.708.3-2.7-2.742-3-.65 2.141-12.283-.991-1.775-5.009 1.983-3.133-1.033.425-1.575 2.25-1.459-.333-4.791 2.425-1.417.375-2.475-5.034 2.567-3.641-1.859-8.25 8.917 1.433 2.7-.167 5.825-1.7 6.033-.783 7.942 1.6-.333 2.333 2.108.909 1.75-.592 1.65 4.283 3.125 1.5 5.067 11.117 6.966 3.592 5.959 4.083 2.433-.375 1.233 1.658.809-.458 1.608 3.025 2.033 3.583-6.366 4.767-2.892h0z"/>
    <path data-info="JUNIN"
      d="M261.233 296.125l-10.908-4.45-1.008-1.875-1.55-.3-1.217 1.725-1.917-.392-3.383 3.975-2.392-.2-1.583 1.209.15-3.092-3.067-1.05-.425 1.717-5.266.366-1.409 1.659-2.266-.084-1.875-1.675-3.5 3.809-4.184-1.05 1.009 3.691-.584 2.375-1.483-1.558-4.65-.058-.725.716 1.092 4.767 2.85 5.683 2.275 2.309 1.691-.767.967.808-.392 3.634 4.059 4.408-.034 1.5 7.7 2.992 1.917-.45 1.517 1.916-.709 2.142 2.684 3.825.75 4.858-1.167 3.334 4.35-.334 3.742-4.333 1.691-.117v-1.841l3.859-4.284.658-6.008 5.633 1.592 3.234-.3 2.491-2 4.525 1.3 2.942 3.766.65 1.5 5.383 2.792.617-1.308 3.167-1.134 4.791-.6 2.525 1.275 1.9 2.967 1.25-.033.434-2.692 2.816-1.525.634-1.6 2.258-.658-2.133-5.15-3.659-2.892-.825-4.733 4.259-3.442-.809-1.625 1.609-2.35-1.725-1.733.916-2.542-.875-4.283-1.608-.475-.783-2.4.308-2.617-5.292-3.35-2.6 5.883-.191 5.117-3.142-.667-.733-3.425-9.884 1.7-5.35-3.858h0z"/>
    <path data-info="LA_LIBERTAD"
      d="M151.9 243.942l1.433-.617.709-4.125 1.266-1.058 7.3-2.542 1.417-1.567-.625-1.158 2.708-6.625 4.9-3.042.95-3.241 6.734-.692 6.625 11.583 2.225 1.3 1.433-1.683 1.608.483 1.892-1.225 4.225-1.183 1.683-1.875.184-4.167-3.025-3.175-2.65-.733-7.175.808.233-3.933-4.05-4.058 1.158-1.559-1.133-5.233-2.925-3.958-.3-3.134 1.108-.575-2.891-2.991-1.225-3.85-6.459.166 4.992 11.325 1.942 1.992-2.767 1.283-.7 1.909-3.442 2.516-2.216.459-.942-1.134-2.908 2.825-4.25-3.466.608-3.484-1.492-.408-2.033 1.867-3.575-.167-1.017-3.642-4.808.667-4.042 5.992-1.966-5.05-7.567-3.659 1.733-1.65.409-2.216-1.484-4.484-3.558-2.125-6.325 6.192 2.175 2.408.567 3.959 3.75 6.258-.45 1.733 4.25 5.75 8.625 7.692 2.408 4.467-1.033 1.541 5.133 5.309-.467 3.758 3.117 5.242h0z"/>
    <path data-info="LAMBAYEQUE"
      d="M98.683 174.217l17.217 10.066 1.45 3.392 6.667 6.75-.192 1.4 6.325-6.192 3.558 2.125.309-3.333 5.108-3.342-.558-2.025-4.159-.691-3.616-5.267-.6-2.225.833-2.317 4.575-2.25-.55-2.141 1.308-2.467-1.083-1.408-4.142-.867-2.158-1.475-2.725.65-.833-2.967-2.842.234.533-2.642-1.866-2.492-1.234-.025-.566-3.058-1.317-1.083-1.15.633-1.317 6.367-3.65 3.666-5.275 1.584-8.05 11.4h0z"/>
    <path data-info="LIMA"
      d="M198.583 278.983l-2.691.267-1.75 1.45-2.759 3.392-.441 2.35-3.217.416-2.808 4.359-4.342-.034.008-3.891-1.716.333-.1-1.842-1.059-2.583 2.317-1.367-2.55-1.6-1.625.034-1.158 4.325.666 2.375-3.083 1.083 6.133 8.983 1.759 6.325-1.325.867-.034 2.417 9.075 5.583 3.634 6.092 3.858.391 2.317 2.85 1.858 3.917.767 4.6-1.292 2.925 1.442.842 1.575 2.058-.584 3.083 3.409 3.192.983 3.1 2.842 2.583 1.075 5.167 6.575 7.825 8.25-8.917 3.641 1.859 5.034-2.567.041-2.633 2.834-2.409-1.859-1.666-.083-1.975 1.167-3.334-.75-4.858-2.684-3.825.709-2.142-1.517-1.916-1.917.45-7.7-2.992.034-1.5-4.059-4.408.392-3.634-.967-.808-1.691.767-2.275-2.309-2.85-5.683-1.092-4.767.725-.716-2.383-2.109-.017-3.866-3.875-10.234-3.525-2.908-1.342-2.767h0z"/>
    <path data-info="LIMA_PROVINCIA"
      d="M191.042 320.708l1.341 2.75-.758 3.842 7.4 5.7 1.325-2.933-.783-4.542-1.884-3.992-2.3-2.825-3.866-.391-.475 2.391z"/>
    <path data-info="LORETO"
      d="M277.067 205.417L279 203.85l-.333-3.05 1.666.692 4.475-2.392-2.783-4.992 2.367-7.325 5.091-4.408 8.625-2.867 2.359-3.283-3.717-8.425 2.633-7.125 5.184-5.675.025-5.158 2.441-4.675-.558-3.342 4.275-2.975 1.992.208 3.6-3.491 2.833-.867.975-1.758 7.4-3.442 6.392-4.842 3.358-1.2 3.325 1.25 3.675-2.508 1.617.8.833-1.05 3.383.067 1.309-1.375 7.108-.017 3.533-4.808 1.867-.959 1.417.684 1.333-1.609.767 1.784 2.416-1.534 1.609 1.059.9-1.192 3.725.75 3.041 5.267.609-2.1 2.116.225 1.625 1.816 1.192-.55.5-3.358-8.608-9.933-1.875-1.017-4.034 2.042-5.766-2.3L382.4 77.208l-.158-2.016-4.117-1.084-1.467-2.583-1.633.817-.625-2.375-2.125.858-1.017-1.775-4.383.283.3-1.833-1.042-1.175-4.566-1.692-1.167-1.875-1.325.892-1.917-1.242-1.425 1.684-2.158.391-1.467 2.534-1.15-1.125-3.758 1.391-2.475-3.175-5.392-1.85-1.191.675-.867-2.283-1.567 1.667-.908-.375-1.392 3.25-2.075 1.225-2.325-.6-4.216 2.983-1.409-.367-2.95 1.542-6.108-3.308-6.883 1.858-2.8-1.183-.192-1.3-2.767.325-2.75-3.509 2-4.9-.5-4.541-2.441-2.925-5.959.708-2.983-2.742L290.617 44l-3.8-7.008-6.367-.792-1.517-3-9.491-3.692-.025-3.633-4.117-9.2-8.317-4.442-.85-3.066-1.375-.875-.916 1.108-2.25-.425L250.5 7.25l-5.667-3.083-3.291 3.133-2.65.4-5.517-1.525v2.083l2.142-.275 3.841 6.809 4.3 3.141-1.208 4.942 1.508 6.325-2.841.1-1.734-1.208-4.091 14.866-13.584 17.309-15.758 12.391-31.592 10.65.859 11.35 4.283 6.05-.933 3.884 2.958 4.416-1.192 14.275-1.866 1.167-.442 2.975-3.292 3.583.95 5.075-1.758 2.142.067 1.35 3.391 2.192-1.175 1.316 1.25 1.475-.075 3.85 3.067 1.35.633-.958 2.584 4.258 6.175.3 10.641 4.034 2.359 6.933 5.35.5 3.658-1.925 5.067 5.783 2.583.284 4.342-2.184.933 1.109 2.583.066.534-1.025 2.675 1 3.866-3.6 2.25 5.35-1.683 3.875 1.308 11.259-5.275 2.725-3.925-1.909-5.558.367 1.083 2.217-1.1 1.358 1.1 3.6-5.441 6.225-.034 2.533 3.309 4.184-.275 4.358 3.608 6.383 2.892-1.05.8 1.4-.409 2.317-2.816 1.058.975 4.167-.575 1.533-1.342.292 1.042 2.108-.909 6.317.917 2.15 3.017-1.717 1.466-4.25 1.675-.175.25-1.291 1.584-.792 2.725 1.525 2.841-.8-1.666-3.958 1.95-3.3 3.825-1.1 1.175.808 2.725-4.75 4.3-.258 2.308 3.008 7.208-3.792 3.009-4.366-1.834-2.117-1.583-5.325 3.792-6.283 4.983 2.283 3.633.208 3.784 2.4 1.525 2.309h0z"/>
    <path data-info="MADRE_DE_DIOS"
      d="M373.583 357.333l-.391-2.091 20.291 6.083 20.817-9.05.008-3.183 3.484-4.309.25-3.066 2.091-2.992-12.05-21.967-12.341-19.183-9.059-1.242-10.933 4.025-3.133-.858-2.775-2.8-2.309 1.775-.008-29.092-1.442 1.5.459 2.892-1.459 2.108-7.008 4.859-1.575 3.716-2.758.7-1.85 2.034-.667 4.866-3.658 5.109-22.142 1.575-.075 1.491 1.7 1.109-2.117 2.641-1.041 3.75-2.05 6.725-3.042 3.042 1.558 2.042-.55 1.116 1.584.784-.142 3.016 2.1 1.025-.258 1.292 4.683.833-.292 4.1 3.55 2.217-.075 2.1-2.3 1.117-.258 1.908 2.408 1.85.084 2.767 6.216 3.025 1.392-1.542 3.842-.792 3.675 4.967 1.616-.275 4.884 2.667 1.366 6.716 2.184.95 5.308-5.416 2.275 1.1 4.583-.134 1.017 1.334 4.333 1.066h0z"/>
    <path data-info="MOQUEGUA"
      d="M353.417 481.617l3.933-3.817 2.158.217.884-3.55 3.866-4.134 1.384-4.733 4.2-1.517 2.1-2.341.216-6.442 3.592-1.833 2.742.941-1.117 3.875 2.7-.366 1.408-1.284.084-2.116 2.566-2.209-.158-1.966-4.492-1.259-.191-1.316-5.542-4.717 1.167-1.667-1.909-6.616-4.041-2.367-3.892 1.167-3.083-1.434.2 2.025-1.675 1.092.566 3.95-3.55 1.833.892 4.059-1.058.933-2.309-1-4.491.225-1.167 6.967-3.658.383-.409 3.342 1.5 4.183 1.217.025 1 1.933-5.067 5.134 2.584 2.791 1.441 6.659-.841 1.2 6.25 3.75h0z"/>
    <path data-info="PASCO"
      d="M215.433 296.417l4.184 1.05 3.5-3.809 1.875 1.675 2.266.084 1.409-1.659 5.266-.366.425-1.717 3.067 1.05-.15 3.092 1.583-1.209 2.392.2 3.383-3.975 1.917.392 1.217-1.725 1.55.3 1.008 1.875 10.908 4.45 5.025-2.708.309-1.442 3.875-3.292 2.608-.825-3.867-6.191 1.409-2.55-.2-2.525-4.534-3.075-2.583-12.817-2.117-.608-.241-2.017-2.484-1.808-1.358 1.125-2.058 6.975-3.725.841-1.509 2.075-4.316.042-3.842-1.517.408 2.325-2.183.017-2.858 2.767-3.075-.575-.492 1.891-1.783.65-.775 4.284-3.659 1.383-3.641 5.942-6.642-2.809-2.317.825-.708-3.2-4.167 2.484-4.191.975-2.092 1.891 3.875 10.234.017 3.866 2.383 2.109 4.65.058 1.483 1.558.584-2.375-1.009-3.691h0z"/>
    <path data-info="PIURA"
      d="M136.733 136.442l-1.425.091-3.475-3.675-2.833-8.341-1.758-.184-1.734-2.016-4.45 1.441-8.333-5.416-2 .341-2.992 3.509-2.675 1.383-1.316-.792-.4-1.9 3.35-4.366-2.834-.734-1.425-3.025-3.641 3.992-2.075-1.183-6.825-.384-2.334-2.308-5.25 4.383-2.441 11.575 7.191 9.6-.816 1.134-1.142-.309-1.65 3.809 6.333 5.666 2.85 5.7-1.05 4.684-1.383.966-3.367-1.608-2.166 2.775v2.467l1.55 2.708 12.466 7.792 8.05-11.4 5.275-1.584 3.65-3.666 1.317-6.367 1.15-.633 1.317 1.083.566 3.058 1.234.025 1.866 2.492-.533 2.642 2.842-.234.833 2.967 2.725-.65 2.158 1.475 2.267-2.058-1.792-3.867.067-5.708 3.383-.484-2.85-8.816 4.525-6.05h0z"/>
    <path data-info="PUNO"
      d="M393.642 467.283l2.266-3.441 4.917-2.317-.558-1.325 6.025-7.95 4.675-1.908-2.367-5.209 1.642-1.575-.742-3.258 1.983-.683-2.108-1.609-7.408-17.7 1.108-2.716 1.108-1.775 3.142-3.667-4.125-3.733-2.05-3.917.208-3.958 3.45-1.642-.875-1.55 1.017-2.717 1.883-.033.25-1.8 4.167-3.725-.8-1.608 1.417-2.542 3.616-.017-1.825-4.783-2.208-1.7-.108-2.25 1.725-2.158-3.984-3.367 1.967-1.033 3.958-10.85-.708-6.492-20.817 9.05-20.291-6.083.391 2.091-.858 1.775.542 3.042-3.8 5.442-4.659 2.358-.166 4.483-1.259-.4-1.691 1.192-.817 4.492 1.767 1.233-.35 1.4-4.75 7.583-.417 4.442-3.017 2.542 1.625 2.35 2.084.266-.767 5.575 1.392 8.542-2.325 3.092 1.208 1.333-.383 2.933 2.425 2.142-.492 3.783 3.117 5.2 3.083 1.434 3.892-1.167 4.041 2.367 1.909 6.616-1.167 1.667 5.542 4.717.191 1.316 4.492 1.259.158 1.966-2.566 2.209-.084 2.116-1.408 1.284 2.683 3.158.184 1.925 8.275 4.483 2.425-.2h0z"/>
    <path data-info="SAN_MARTIN"
      d="M223.325 226.575l1.342-.292.575-1.533-.975-4.167 2.816-1.058.409-2.317-.8-1.4-2.892 1.05-3.608-6.383.275-4.358-3.309-4.184.034-2.533 5.441-6.225-1.1-3.6 1.1-1.358L221.55 186l5.558-.367 3.925 1.909 5.275-2.725L235 173.558l1.683-3.875-2.25-5.35-3.866 3.6-2.675-1-.534 1.025-2.583-.066-.933-1.109-4.342 2.184-2.583-.284-5.067-5.783-3.658 1.925-5.35-.5-2.359-6.933-10.641-4.034-6.175-.3-2.584-4.258-.633.958-3.067-1.35-1.95.725.85 4.492-.991 2.15.266 3.608 2.309 1.075.233 3.242 3.633 2.225 1.484-1.675 1.183 1.6 1.05-.567 1.317 2.009 3.316.875 2.425 4.175-1.05 2.116-3.083-1.35.358 2.034-1.666 3.108-2.709 2.225 1.459 2.475-4.359-.55-1.833-1.742-2.175 1.784-1.4-.359-.433 3.825 1.033 2.3-.958 1.909 1.225 3.85 2.891 2.991-1.108.575.3 3.134 2.925 3.958 1.133 5.233-1.158 1.559 4.05 4.058-.233 3.933 7.175-.808 2.65.733 3.025 3.175-.184 4.167-1.683 1.875-4.225 1.183 2.258 3.059 3.584.441 2.275-1.441 7.758-.184 2.05 1.609 1.325-3.392 2.242-.375 2.775 9.85 3.066-3.725-.391-5.108 1.158-3.5 2.75-.392h0z"/>
    <path data-info="TACNA"
      d="M393.642 467.283l-2.425.2-8.275-4.483-.184-1.925-2.683-3.158-2.7.366 1.117-3.875-2.742-.941-3.592 1.833-.216 6.442-2.1 2.341-4.2 1.517-1.384 4.733-3.866 4.134-.884 3.55-2.158-.217-3.933 3.817 3.45 1.483 3.541 3.708 13.492 9.025 11.167-2.366 3.966-3.984 1.65-3.458-1.875-8.033.684-1.075 3.5.366 5.291-4.183.034-3.508-4.675-2.309h0z"/>
    <path data-info="TUMBES"
      d="M102.433 112.758l1.534-2.516 3.55.75 4.241-2.8-2.158-12.6-1.925-.942-2.375 2.258-3.333.434-2.1 3.416-4.575 2.2-2.15 4.234-4.134 2.95-1.45 2.733 2.334 2.308 6.825.384 2.075 1.183 3.641-3.992h0z"/>
    <path data-info="UCAYALI"
      d="M367.525 269.383l.05-2.991 2.258-2.125-1.883-3.192.167-1.575 2.1-1.5-1.309-1.675-8.208 6.292-3.492 4.125-4.275 1.441-.925 1.834-2.833 1.391-23.708.2.783-5.425-2.892-2.291-.6-4.559-3.375-1.75-3.308.134-5.008-1.884-12.984-.016 6.359-7.184.416-3.083-5.883-8.883-2.258-.2-2.492-2.359.35-3.408-5.683-3.45.45-1.958-3.067-7.192-3.408-2.583 2.391-1.409-.966-3.091-5-2.792.291-.958-2.516-1.85-1.525-2.309-3.784-2.4-3.633-.208-4.983-2.283-3.792 6.283 1.583 5.325 1.834 2.117-3.009 4.366-7.208 3.792-2.308-3.008-4.3.258-2.725 4.75-1.175-.808-3.825 1.1-1.95 3.3 1.666 3.958-2.841.8-2.725-1.525-1.584.792-.25 1.291-1.675.175-1.466 4.25-3.017 1.717 1.875 8.2 2.192 4.475 3.316 5.592 2.909.1 1.825-.617 1.133-2.167 4.55.359 1.958-2.15-.75-3.309 2.325-1.825.209-1.783 2.625-1.825 1.791 1.283 1.2-.583-.175-1.942 2.417-2.716.108-2.567 6.142-3.017 1.9.959.4 5.141-2.058 1.184-1.859 7.35 2.384 5.616-2.359 3.359 2.484 1.808.241 2.017 2.117.608 2.583 12.817 4.534 3.075.2 2.525-1.409 2.55 3.867 6.191-2.608.825-3.875 3.292-.309 1.442-5.025 2.708 5.35 3.858 9.884-1.7.733 3.425 3.142.667.191-5.117 2.6-5.883 5.292 3.35-.308 2.617.783 2.4 1.608.475.875 4.283-.916 2.542 1.725 1.733 2.375-1.95 8.183-1.267.992-1.75 1.016 3.534 4.225 1.441 1.509-.983 3.441 2.167 2.017.183 6.1-3.442 1.842 1.025 1.041-3.75 2.117-2.641-1.7-1.109.075-1.491 22.142-1.575 3.658-5.109.667-4.866 1.85-2.034 2.758-.7 1.575-3.716 7.008-4.859 1.459-2.108-.459-2.892 1.442-1.5h0z"/>
  </g>
</svg>